<svg width="32" height="32" viewBox="0 0 32 32" fill="none" xmlns="http://www.w3.org/2000/svg">
<g clip-path="url(#clip0_9_596)">
<path d="M26 0H6C4.40924 0.00176457 2.88414 0.634472 1.75931 1.75931C0.634472 2.88414 0.00176457 4.40924 0 6L0 26C0.00176457 27.5908 0.634472 29.1159 1.75931 30.2407C2.88414 31.3655 4.40924 31.9982 6 32H26C27.5908 31.9982 29.1159 31.3655 30.2407 30.2407C31.3655 29.1159 31.9982 27.5908 32 26V6C31.9982 4.40924 31.3655 2.88414 30.2407 1.75931C29.1159 0.634472 27.5908 0.00176457 26 0V0ZM6 4H26C26.5304 4 27.0391 4.21071 27.4142 4.58579C27.7893 4.96086 28 5.46957 28 6V26C28.0004 26.2626 27.9487 26.5228 27.848 26.7653C27.7473 27.0079 27.5996 27.2281 27.4133 27.4133L15.7707 15.7707C14.7705 14.7708 13.4142 14.2091 12 14.2091C10.5858 14.2091 9.22948 14.7708 8.22933 15.7707L4 20V6C4 5.46957 4.21071 4.96086 4.58579 4.58579C4.96086 4.21071 5.46957 4 6 4V4Z" fill="white"/>
<path d="M20.6665 13.3327C22.5074 13.3327 23.9998 11.8403 23.9998 9.99935C23.9998 8.1584 22.5074 6.66602 20.6665 6.66602C18.8255 6.66602 17.3331 8.1584 17.3331 9.99935C17.3331 11.8403 18.8255 13.3327 20.6665 13.3327Z" fill="white"/>
</g>
<defs>
<clipPath id="clip0_9_596">
<rect width="32" height="32" fill="white"/>
</clipPath>
</defs>
</svg>
