<svg width="32" height="32" viewBox="0 0 32 32" fill="none" xmlns="http://www.w3.org/2000/svg">
<path d="M31.4149 28.5941L25.2214 22.398C29.8557 16.2049 28.5921 7.42761 22.399 2.79331C16.206 -1.84098 7.42869 -0.577362 2.79439 5.61567C-1.8399 11.8087 -0.576279 20.586 5.61675 25.2203C10.5915 28.943 17.4242 28.943 22.399 25.2203L28.5952 31.4165C29.3738 32.1951 30.6363 32.1951 31.4149 31.4165C32.1935 30.6378 32.1935 29.3754 31.4149 28.5968L31.4149 28.5941ZM14.0595 24.0244C8.55546 24.0244 4.09358 19.5625 4.09358 14.0585C4.09358 8.55438 8.55546 4.0925 14.0595 4.0925C19.5636 4.0925 24.0255 8.55438 24.0255 14.0585C24.0196 19.56 19.5612 24.0186 14.0595 24.0244Z" fill="white"/>
</svg>
