<svg width="32" height="32" viewBox="0 0 32 32" fill="none" xmlns="http://www.w3.org/2000/svg">
<g clip-path="url(#clip0_9_688)">
<path d="M24.6667 32H7.33333C5.38906 31.9979 3.52503 31.2246 2.15022 29.8498C0.775414 28.475 0.00211756 26.6109 0 24.6667L0 7.33333C0.00211756 5.38906 0.775414 3.52503 2.15022 2.15022C3.52503 0.775414 5.38906 0.00211756 7.33333 0L24.6667 0C26.6109 0.00211756 28.475 0.775414 29.8498 2.15022C31.2246 3.52503 31.9979 5.38906 32 7.33333V24.6667C31.9979 26.6109 31.2246 28.475 29.8498 29.8498C28.475 31.2246 26.6109 31.9979 24.6667 32ZM7.33333 4C6.44928 4 5.60143 4.35119 4.97631 4.97631C4.35119 5.60143 4 6.44928 4 7.33333V24.6667C4 25.5507 4.35119 26.3986 4.97631 27.0237C5.60143 27.6488 6.44928 28 7.33333 28H24.6667C25.5507 28 26.3986 27.6488 27.0237 27.0237C27.6488 26.3986 28 25.5507 28 24.6667V7.33333C28 6.44928 27.6488 5.60143 27.0237 4.97631C26.3986 4.35119 25.5507 4 24.6667 4H7.33333ZM10.656 12.452V19.548C10.656 19.8602 10.738 20.1669 10.8938 20.4375C11.0496 20.708 11.2737 20.9329 11.5437 21.0897C11.8137 21.2464 12.1201 21.3295 12.4323 21.3306C12.7445 21.3317 13.0516 21.2508 13.3227 21.096L20.4253 17.548C20.6983 17.3921 20.9252 17.1668 21.083 16.895C21.2408 16.6231 21.3239 16.3143 21.3239 16C21.3239 15.6857 21.2408 15.3769 21.083 15.105C20.9252 14.8332 20.6983 14.6079 20.4253 14.452L13.3227 10.904C13.0516 10.7492 12.7445 10.6683 12.4323 10.6694C12.1201 10.6705 11.8137 10.7536 11.5437 10.9103C11.2737 11.0671 11.0496 11.292 10.8938 11.5625C10.738 11.8331 10.656 12.1398 10.656 12.452V12.452Z" fill="white"/>
</g>
<defs>
<clipPath id="clip0_9_688">
<rect width="32" height="32" fill="white"/>
</clipPath>
</defs>
</svg>
