<svg width="32" height="32" viewBox="0 0 32 32" fill="none" xmlns="http://www.w3.org/2000/svg">
<path d="M30.633 11.5934L21.185 2.14538C18.3191 -0.713174 13.6803 -0.713174 10.8143 2.14538L1.36634 11.5934C0.488338 12.4667 -0.00378582 13.6549 -0.000348323 14.8934V28.7306C0.00258917 30.5368 1.46684 31.9998 3.27302 32.0013H28.7263C30.5325 31.9999 31.9967 30.5368 31.9996 28.7306V14.8934C32.0031 13.6549 31.511 12.4667 30.633 11.5934ZM27.9996 28.0013H21.333V23.7587C21.333 20.9472 19.0538 18.668 16.2423 18.668H15.757C12.9455 18.668 10.6663 20.9472 10.6663 23.7587V28.0013H3.99964V14.8934C4.00008 14.7165 4.06996 14.547 4.19433 14.4214L13.6423 4.97338C14.9439 3.67144 17.0544 3.67119 18.3564 4.97275C18.3566 4.97294 18.3568 4.97319 18.357 4.97338L27.805 14.4214C27.9293 14.547 27.9992 14.7165 27.9997 14.8934V28.0013H27.9996Z" fill="white"/>
</svg>
