<svg width="26" height="26" viewBox="0 0 26 26" fill="none" xmlns="http://www.w3.org/2000/svg">
<path d="M19.0919 19.0919C15.5772 22.6066 9.87869 22.6066 6.36397 19.0919C2.84926 15.5772 2.84926 9.87868 6.36397 6.36396C9.87869 2.84924 15.5772 2.84924 19.0919 6.36396C22.6066 9.87868 22.6066 15.5772 19.0919 19.0919ZM7.63677 7.63675C4.82499 10.4485 4.82499 15.0073 7.63677 17.8191C10.4485 20.6309 15.0073 20.6309 17.8191 17.8191C20.6309 15.0073 20.6309 10.4485 17.8191 7.63675C15.0073 4.82498 10.4485 4.82498 7.63677 7.63675Z" fill="white"/>
<rect x="19.0919" y="17.6777" width="7.91876" height="2" rx="1" transform="rotate(45 19.0919 17.6777)" fill="white"/>
</svg>
